<?xml version="1.0" encoding="UTF-8"?>
<svg xmlns="http://www.w3.org/2000/svg" xmlns:xlink="http://www.w3.org/1999/xlink" viewBox="0 0 48 48" width="48px" height="48px">
<g id="surface22579563">
<path style=" stroke:none;fill-rule:nonzero;fill:rgb(97.254902%,44.313726%,44.313726%);fill-opacity:1;" d="M 30 26 L 34 26 L 34 44 L 30 44 Z M 16 4 L 20 4 L 20 44 L 16 44 Z M 16 4 "/>
<path style=" stroke:none;fill-rule:nonzero;fill:rgb(97.254902%,44.313726%,44.313726%);fill-opacity:1;" d="M 32 4 L 30 4 L 30 30 L 38 30 L 38 22 C 38 17.601562 38 10 32 4 Z M 20 22 L 16 22 C 12.601562 22 10 19.398438 10 16 L 10 4 L 14 4 L 14 16 C 14 17.199219 14.800781 18 16 18 L 20 18 C 21.199219 18 22 17.199219 22 16 L 22 4 L 26 4 L 26 16 C 26 19.398438 23.398438 22 20 22 Z M 20 22 "/>
<path style=" stroke:none;fill-rule:nonzero;fill:rgb(97.254902%,44.313726%,44.313726%);fill-opacity:1;" d="M 22 14 C 22 14.601562 21.601562 15 21 15 C 20.398438 15 20 14.601562 20 14 L 16 14 C 16 14.601562 15.601562 15 15 15 C 14.398438 15 14 14.601562 14 14 L 12 14 L 12 16 C 12 18.199219 13.800781 20 16 20 L 20 20 C 22.199219 20 24 18.199219 24 16 L 24 14 Z M 22 14 "/>
</g>
</svg>
