<?xml version="1.0"?><svg fill="currentColor" xmlns="http://www.w3.org/2000/svg"  viewBox="0 0 30 30" width="60px" height="60px">    <path d="M15,3C8.373,3,3,8.373,3,15c0,6.627,5.373,12,12,12s12-5.373,12-12C27,8.373,21.627,3,15,3z M19,21h-8c-0.552,0-1-0.448-1-1 c0-0.552,0.448-1,1-1h8c0.552,0,1,0.448,1,1C20,20.552,19.552,21,19,21z M19,16h-8c-0.552,0-1-0.448-1-1c0-0.552,0.448-1,1-1h8 c0.552,0,1,0.448,1,1C20,15.552,19.552,16,19,16z M19,11h-8c-0.552,0-1-0.448-1-1c0-0.552,0.448-1,1-1h8c0.552,0,1,0.448,1,1 C20,10.552,19.552,11,19,11z"/></svg>